<?xml version="1.0" standalone="no"?>
<!DOCTYPE svg PUBLIC "-//W3C//DTD SVG 20010904//EN"
 "http://www.w3.org/TR/2001/REC-SVG-20010904/DTD/svg10.dtd">
<svg version="1.0" xmlns="http://www.w3.org/2000/svg"
 width="271.000000pt" height="186.000000pt" viewBox="0 0 271.000000 186.000000"
 preserveAspectRatio="xMidYMid meet">

<g transform="translate(0.000000,186.000000) scale(0.100000,-0.100000)"
fill="#000000" stroke="none">
<path d="M2535 1849 c-240 -32 -500 -175 -754 -413 -80 -76 -245 -271 -303
-358 -28 -43 -56 -78 -61 -78 -6 0 -3 8 6 18 21 24 22 48 1 60 -14 8 -15 14
-4 48 54 167 233 444 287 444 18 0 55 39 48 50 -8 14 -39 -4 -92 -53 -81 -74
-159 -199 -233 -372 -29 -67 -44 -91 -59 -93 -12 -2 -21 2 -21 8 0 20 -96 205
-141 272 -75 111 -221 239 -245 215 -11 -11 9 -29 52 -47 92 -40 220 -211 299
-399 24 -59 25 -64 10 -82 -16 -17 -16 -20 5 -48 41 -59 13 -30 -68 67 -151
183 -341 353 -537 481 -194 126 -354 184 -563 203 -119 11 -125 11 -139 -8
-23 -32 -27 -65 -15 -134 14 -84 86 -227 151 -302 35 -42 51 -69 56 -100 4
-24 18 -64 31 -89 12 -25 28 -76 34 -112 7 -40 19 -72 31 -83 12 -11 19 -30
19 -52 0 -44 34 -115 66 -141 23 -18 23 -20 9 -47 -8 -16 -15 -55 -15 -86 0
-31 -5 -69 -10 -84 -8 -19 -6 -42 5 -86 8 -33 15 -79 15 -102 0 -32 6 -50 25
-70 14 -15 31 -42 39 -60 7 -18 26 -42 42 -55 85 -66 108 -81 123 -81 9 0 27
-9 41 -20 14 -11 38 -20 53 -20 15 0 44 -8 65 -18 28 -15 57 -18 122 -17 101
2 183 34 223 87 44 57 122 218 168 345 24 68 47 123 50 123 4 0 9 -44 11 -97
11 -208 64 -204 75 6 l6 104 23 -61 c33 -87 118 -260 163 -328 50 -77 85 -111
124 -120 18 -3 41 -13 52 -20 31 -22 178 -8 237 22 26 13 54 24 62 24 22 0
107 47 137 76 14 13 30 24 36 24 18 0 73 69 73 91 0 12 11 34 25 51 19 22 25
41 25 76 0 26 5 78 10 115 8 53 7 74 -4 95 -7 15 -16 53 -20 86 -3 32 -11 67
-17 79 -9 16 -8 22 5 29 25 14 53 77 61 138 4 30 14 64 21 75 7 11 16 47 20
80 4 33 17 87 30 119 13 33 24 73 24 89 0 18 17 55 44 96 97 147 142 271 134
367 -7 87 -23 94 -173 73z m55 -74 c0 -14 -4 -25 -10 -25 -5 0 -10 11 -10 25
0 14 5 25 10 25 6 0 10 -11 10 -25z m-128 -50 c4 -34 3 -35 -29 -35 -26 0 -36
5 -42 23 -11 26 10 47 45 47 18 0 23 -7 26 -35z m208 15 c0 -5 -4 -10 -10 -10
-5 0 -10 5 -10 10 0 6 5 10 10 10 6 0 10 -4 10 -10z m-440 -25 c-7 -8 -19 -15
-27 -15 -13 0 -13 3 -3 15 7 8 19 15 27 15 13 0 13 -3 3 -15z m-2065 -20 c0
-10 -6 -20 -12 -22 -8 -3 -13 5 -13 22 0 17 5 25 13 23 6 -3 12 -13 12 -23z
m2398 -15 c3 -11 1 -20 -4 -20 -5 0 -9 9 -9 20 0 11 2 20 4 20 2 0 6 -9 9 -20z
m-419 -9 c6 -10 -10 -25 -36 -34 -22 -8 -23 6 -2 27 17 18 30 20 38 7z m-2074
-22 c0 -5 -4 -9 -10 -9 -5 0 -10 7 -10 16 0 8 5 12 10 9 6 -3 10 -10 10 -16z
m334 6 c-4 -8 -10 -12 -15 -9 -14 8 -10 24 6 24 9 0 12 -6 9 -15z m1971 5 c-4
-6 -1 -17 5 -25 14 -16 10 -18 -14 -9 -9 3 -13 10 -10 15 3 5 -2 6 -10 3 -9
-3 -16 -1 -16 4 0 6 10 13 23 15 12 2 23 5 25 6 2 0 0 -4 -3 -9z m-1856 -58
c15 -32 4 -41 -36 -30 -35 9 -51 41 -33 63 16 19 54 1 69 -33z m1769 19 c11
-6 10 -11 -3 -25 -27 -26 -75 -18 -57 10 6 10 27 21 42 23 3 0 11 -3 18 -8z
m336 -6 c4 -10 -1 -15 -14 -15 -20 0 -26 11 -13 23 10 11 20 8 27 -8z m-2449
-5 c4 -6 1 -18 -6 -26 -10 -12 -14 -12 -20 -2 -5 7 -9 19 -9 26 0 15 26 16 35
2z m445 -10 c0 -5 -2 -10 -4 -10 -3 0 -8 5 -11 10 -3 6 -1 10 4 10 6 0 11 -4
11 -10z m-348 -35 c-3 -16 -11 -25 -23 -25 -14 0 -19 7 -19 25 0 20 5 25 24
25 19 0 22 -4 18 -25z m1778 18 c0 -9 -32 -43 -41 -43 -9 0 -7 20 4 38 8 13
37 17 37 5z m528 -30 c2 -11 -4 -23 -12 -26 -20 -8 -27 4 -19 32 7 26 27 23
31 -6z m-204 8 c4 -5 0 -11 -6 -14 -10 -3 -10 -7 -1 -18 7 -9 8 -20 3 -29 -14
-23 -37 5 -32 40 4 29 24 40 36 21z m-2254 -31 c0 -11 -4 -20 -10 -20 -5 0
-10 9 -10 20 0 11 5 20 10 20 6 0 10 -9 10 -20z m271 -30 c45 -25 5 -82 -57
-82 -64 0 -94 61 -40 82 29 12 74 12 97 0z m169 -13 c0 -20 -4 -23 -30 -19
-53 8 -47 41 8 42 16 0 22 -6 22 -23z m-366 7 c22 -8 20 -31 -3 -44 -25 -13
-51 -3 -51 19 0 30 19 38 54 25z m2280 -9 c3 -8 1 -15 -4 -15 -6 0 -10 7 -10
15 0 8 2 15 4 15 2 0 6 -7 10 -15z m-225 -14 c10 -6 15 -31 16 -81 1 -83 -9
-100 -58 -100 l-32 0 3 95 3 95 27 0 c15 0 33 -4 41 -9z m292 -34 c-8 -8 -11
-7 -11 4 0 9 3 19 7 23 4 4 9 2 11 -4 3 -7 -1 -17 -7 -23z m-1683 -31 c60 -30
195 -153 185 -169 -3 -6 -1 -7 5 -3 12 7 217 -184 234 -219 5 -11 -7 -3 -26
19 -20 21 -36 35 -36 32 0 -3 0 -8 0 -11 1 -18 -27 -32 -46 -23 -15 7 -28 7
-40 -1 -16 -10 -15 -10 9 -5 24 6 39 -8 20 -19 -5 -2 -2 -2 5 0 21 5 36 -8 21
-17 -8 -5 -40 6 -83 28 -39 19 -102 47 -140 61 -62 23 -73 32 -96 71 -17 30
-48 60 -90 89 -53 35 -70 53 -92 100 -15 31 -35 67 -45 80 l-17 24 89 -5 c71
-4 101 -11 143 -32z m1534 22 c-13 -13 -17 -32 -4 -25 4 3 7 -8 7 -24 1 -41
-29 -35 -32 6 -4 40 3 55 24 55 13 0 14 -3 5 -12z m-2125 -20 c-3 -8 -6 -5 -6
6 -1 11 2 17 5 13 3 -3 4 -12 1 -19z m369 -5 c20 -13 54 -87 54 -119 0 -13
-109 -54 -143 -54 -10 0 -34 7 -52 16 -69 33 -72 133 -5 167 40 20 107 16 146
-10z m1854 2 c0 -8 -4 -15 -10 -15 -5 0 -10 7 -10 15 0 8 5 15 10 15 6 0 10
-7 10 -15z m-2290 -35 c0 -13 -5 -18 -15 -14 -8 4 -15 12 -15 20 0 8 7 14 15
14 8 0 15 -9 15 -20z m1607 -4 c-6 -12 -18 -23 -25 -22 -8 1 -17 -5 -20 -13
-2 -8 0 -11 5 -8 7 4 11 -27 12 -85 2 -72 6 -94 19 -104 14 -10 6 -17 -58 -49
-40 -20 -109 -61 -152 -91 -44 -30 -85 -54 -93 -54 -7 0 -19 -2 -27 -3 -7 -2
-10 -2 -5 0 4 3 4 9 1 14 -3 6 0 16 6 24 9 11 9 15 1 15 -33 0 65 122 253 318
82 85 102 99 83 58z m-1427 -16 c13 -25 5 -56 -17 -64 -9 -4 -17 -5 -18 -4 -4
4 -8 58 -6 76 2 19 29 14 41 -8z m-110 -15 c0 -9 -9 -15 -21 -15 -18 0 -19 2
-9 15 7 8 16 15 21 15 5 0 9 -7 9 -15z m1544 -20 c-4 -8 -11 -12 -16 -9 -6 4
-5 10 3 15 19 12 19 11 13 -6z m586 -30 c0 -8 -7 -15 -15 -15 -9 0 -12 6 -9
15 4 8 10 15 15 15 5 0 9 -7 9 -15z m-291 -5 c4 0 7 -38 6 -85 0 -47 4 -85 9
-85 5 0 7 -3 4 -6 -4 -3 -26 -3 -50 1 l-43 6 0 82 c0 73 2 83 20 88 11 4 26 5
33 3 8 -2 17 -4 21 -4z m-1326 -70 c20 -13 33 -30 30 -37 -4 -9 1 -11 13 -7
13 4 15 3 6 -3 -7 -6 -10 -18 -6 -29 6 -18 6 -18 -11 1 -16 19 -16 19 -1 -7
15 -26 15 -27 -17 -37 -51 -17 -160 -41 -184 -41 -22 0 -23 3 -23 89 0 103 -2
101 102 97 40 -2 66 -9 91 -26z m-495 9 c-2 -6 -8 -10 -13 -10 -5 0 -11 4 -13
10 -2 6 4 11 13 11 9 0 15 -5 13 -11z m90 -1 c-6 -18 -25 -20 -31 -3 -5 10 0
15 14 15 12 0 19 -5 17 -12z m2008 -23 c8 -21 -14 -45 -41 -45 -16 0 -21 6
-21 23 1 12 6 25 11 29 17 13 45 9 51 -7z m64 -2 c0 -14 -19 -38 -25 -32 -8 8
5 39 16 39 5 0 9 -3 9 -7z m-2046 -49 c24 -9 21 -54 -4 -54 -23 0 -35 22 -26
45 6 17 8 17 30 9z m1916 -59 c0 -14 -4 -25 -9 -25 -5 0 -11 11 -13 25 -4 17
-1 25 8 25 8 0 14 -11 14 -25z m77 -17 c-3 -8 -6 -5 -6 6 -1 11 2 17 5 13 3
-3 4 -12 1 -19z m-1600 -28 c1 -12 -5 -20 -15 -21 -15 0 -15 -1 -1 -7 10 -5
16 -23 18 -57 1 -27 7 -52 12 -54 12 -4 -154 -61 -177 -61 -11 0 -12 4 -5 19
6 10 8 21 4 24 -7 8 -7 106 0 114 4 3 2 14 -4 24 -9 17 -5 19 43 20 29 1 67 5
83 9 17 4 32 8 35 9 3 0 6 -8 7 -19z m-351 -27 c-5 -12 -10 -13 -18 -5 -8 8
-8 15 3 28 15 18 25 4 15 -23z m804 7 c8 -5 11 -12 7 -17 -5 -4 -12 -1 -16 6
-6 9 -11 10 -15 2 -4 -6 -2 -11 4 -11 6 0 8 -5 4 -11 -10 -16 -28 6 -21 25 7
18 16 20 37 6z m-885 -10 c3 -5 1 -10 -4 -10 -6 0 -11 5 -11 10 0 6 2 10 4 10
3 0 8 -4 11 -10z m938 -49 c-2 -13 1 -20 7 -16 6 3 10 1 10 -4 0 -6 -7 -11
-16 -11 -12 0 -15 7 -12 25 3 13 1 26 -4 29 -5 2 -3 3 4 2 7 -2 12 -13 11 -25z
m1065 2 c4 -27 -27 -39 -47 -18 -15 15 -14 18 4 31 24 18 39 13 43 -13z
m-1148 7 c0 -5 -4 -10 -9 -10 -6 0 -13 5 -16 10 -3 6 1 10 9 10 9 0 16 -4 16
-10z m40 -10 c-16 -5 -19 -8 -8 -9 9 -1 20 -5 23 -11 4 -6 -2 -7 -16 -1 -34
12 -35 31 -2 30 l28 -1 -25 -8z m525 -137 c36 -6 38 -7 15 -14 -37 -10 -170
-10 -170 0 0 20 78 27 155 14z m-209 -24 c51 -18 73 -20 160 -14 100 6 100 6
129 -22 39 -39 77 -126 80 -184 3 -56 3 -56 -76 -33 -120 36 -313 151 -354
212 -45 66 -33 74 61 41z m-430 -5 c-22 -15 -149 -19 -207 -6 -28 6 -18 8 51
12 168 11 177 10 156 -6z m36 -69 c2 -29 -3 -47 -17 -63 -27 -32 -152 -109
-215 -133 -47 -18 -50 -18 -43 -2 10 21 9 160 0 170 -15 14 -6 25 10 12 15
-13 15 -12 5 7 -9 17 -9 24 1 32 22 17 41 19 149 18 l107 -1 3 -40z m1146 23
c19 -25 24 -58 8 -58 -23 0 -70 45 -62 58 9 16 41 15 54 0z m-1003 -89 c-4
-12 -8 -49 -10 -83 -2 -43 -12 -80 -33 -126 l-31 -65 -1 70 c0 59 5 80 37 147
35 76 51 100 38 57z m877 -14 c23 -16 35 -31 33 -42 -2 -10 -4 -39 -4 -65 l-1
-48 -38 0 c-56 0 -125 27 -163 63 -30 28 -34 37 -31 75 l3 42 82 0 c71 0 87
-3 119 -25z m-1368 -22 c-17 -69 -70 -129 -144 -162 -47 -22 -116 -29 -105
-11 3 6 0 10 -7 11 -7 0 -8 3 -2 5 6 3 9 27 6 63 -4 54 -2 60 20 75 21 14 157
42 216 45 20 1 22 -2 16 -26z m1536 2 c0 -8 -4 -15 -10 -15 -5 0 -10 7 -10 15
0 8 5 15 10 15 6 0 10 -7 10 -15z m-850 -54 c25 -50 58 -186 47 -197 -2 -2
-18 22 -37 53 -28 46 -35 67 -36 118 -1 35 -4 68 -8 74 -4 6 -5 11 -2 11 3 0
19 -27 36 -59z m206 4 c22 -13 35 -30 44 -59 6 -23 34 -83 61 -133 26 -51 50
-109 53 -130 8 -73 -28 -94 -82 -48 -44 37 -133 180 -126 202 4 13 3 15 -4 4
-7 -9 -11 -10 -17 -2 -4 7 -3 17 2 24 5 7 8 47 7 90 -2 62 -7 82 -21 94 -17
14 3 4 83 -42z m-561 35 c-9 -15 -11 -160 -2 -147 5 7 6 -1 2 -18 -8 -35 -101
-196 -142 -243 l-28 -34 1 104 c3 151 3 160 12 155 4 -3 8 9 9 27 3 56 20 83
83 125 65 43 75 48 65 31z m-675 -35 c0 -14 -4 -25 -10 -25 -11 0 -14 33 -3
43 11 11 13 8 13 -18z m-60 -16 c0 -11 -4 -17 -10 -14 -5 3 -10 13 -10 21 0 8
5 14 10 14 6 0 10 -9 10 -21z m1370 -23 c0 -3 -4 -8 -10 -11 -5 -3 -10 -1 -10
4 0 6 5 11 10 11 6 0 10 -2 10 -4z m-1310 -31 c0 -8 -4 -15 -10 -15 -5 0 -7 7
-4 15 4 8 8 15 10 15 2 0 4 -7 4 -15z m1599 -11 c20 -7 30 -13 23 -13 -9 -1
-11 -8 -7 -22 4 -13 1 -27 -10 -39 -12 -14 -13 -20 -4 -26 7 -4 10 -3 5 4 -3
6 -2 13 4 17 5 3 10 -3 10 -14 0 -26 -12 -27 -35 -1 -9 10 -46 38 -82 61 -46
30 -60 45 -51 51 16 10 99 1 147 -18z m-148 -19 c96 -49 167 -132 155 -181 -8
-30 -54 -54 -105 -54 -33 0 -46 6 -76 37 -19 20 -35 39 -36 42 -1 12 -1 97 0
139 1 23 3 42 6 42 3 0 28 -11 56 -25z m-1095 -3 c7 -4 -13 -25 -52 -54 -50
-37 -61 -42 -55 -25 10 31 8 46 -8 56 -10 7 -2 12 30 19 56 13 71 13 85 4z
m32 -137 c0 -130 -5 -139 -76 -133 l-37 3 0 85 0 84 50 38 c28 21 53 38 56 38
4 0 7 -52 7 -115z m-420 87 c2 -7 -3 -12 -12 -12 -9 0 -16 7 -16 16 0 17 22
14 28 -4z m1889 -14 c-3 -8 -6 -5 -6 6 -1 11 2 17 5 13 3 -3 4 -12 1 -19z
m-631 -116 c22 -37 27 -57 25 -106 -1 -33 -3 -62 -6 -64 -18 -19 -88 77 -77
107 3 9 0 11 -9 7 -8 -4 -5 0 5 8 11 9 16 16 10 16 -5 0 -9 24 -9 54 0 51 1
54 17 39 10 -9 30 -36 44 -61z m-571 -16 c0 -41 -3 -69 -7 -63 -4 7 -8 8 -8 2
0 -5 4 -17 10 -25 18 -29 -50 -103 -79 -86 -16 10 -13 71 4 114 13 30 73 132
79 132 0 0 1 -33 1 -74z m1117 52 c-7 -7 -12 -8 -12 -2 0 14 12 26 19 19 2 -3
-1 -11 -7 -17z m-1715 -60 c-3 -8 -6 -5 -6 6 -1 11 2 17 5 13 3 -3 4 -12 1
-19z m-47 -20 c-1 -28 -2 -30 -11 -15 -6 10 -8 25 -5 33 9 24 16 16 16 -18z
m1700 28 c0 -3 -4 -8 -10 -11 -5 -3 -10 -1 -10 4 0 6 5 11 10 11 6 0 10 -2 10
-4z m57 -48 c-3 -8 -6 -5 -6 6 -1 11 2 17 5 13 3 -3 4 -12 1 -19z m-1627 -8
c0 -5 -2 -10 -4 -10 -3 0 -8 5 -11 10 -3 6 -1 10 4 10 6 0 11 -4 11 -10z m-53
-35 c3 -9 3 -19 -1 -22 -8 -9 -37 18 -30 28 8 14 24 11 31 -6z m123 -5 c8 -5
11 -12 8 -16 -10 -9 -38 3 -38 16 0 12 10 13 30 0z m1355 0 c8 -13 -20 -24
-41 -16 -20 8 -9 26 16 26 10 0 22 -5 25 -10z m115 -5 c0 -8 -4 -15 -10 -15
-5 0 -10 7 -10 15 0 8 5 15 10 15 6 0 10 -7 10 -15z m-1380 -40 c0 -8 -7 -15
-15 -15 -8 0 -15 7 -15 15 0 8 7 15 15 15 8 0 15 -7 15 -15z m-130 -10 c0 -8
-4 -15 -9 -15 -13 0 -22 16 -14 24 11 11 23 6 23 -9z m244 -11 c5 -12 0 -15
-21 -12 -14 2 -28 9 -31 16 -6 18 45 15 52 -4z m86 -14 c0 -11 -7 -20 -15 -20
-15 0 -21 21 -8 33 12 13 23 7 23 -13z m985 0 c-3 -5 -10 -10 -16 -10 -5 0 -9
5 -9 10 0 6 7 10 16 10 8 0 12 -4 9 -10z m-1205 -20 c0 -5 -4 -10 -9 -10 -6 0
-13 5 -16 10 -3 6 1 10 9 10 9 0 16 -4 16 -10z m110 -20 c0 -5 -6 -10 -14 -10
-8 0 -18 5 -21 10 -3 6 3 10 14 10 12 0 21 -4 21 -10z m165 0 c-3 -5 -15 -10
-26 -10 -11 0 -17 5 -14 10 3 6 15 10 26 10 11 0 17 -4 14 -10z"/>
<path d="M1134 1146 c1 -6 12 -22 24 -34 19 -19 21 -26 12 -38 -17 -19 17 -32
34 -13 11 12 5 21 -30 55 -23 23 -41 36 -40 30z m61 -76 c-3 -5 -12 -10 -18
-10 -7 0 -6 4 3 10 19 12 23 12 15 0z"/>
<path d="M1124 1098 c-4 -7 -3 -8 4 -4 7 4 12 2 12 -3 0 -6 5 -11 10 -11 15 0
12 17 -5 23 -8 4 -17 1 -21 -5z"/>
<path d="M1768 1128 c5 -5 16 -8 23 -6 8 3 3 7 -10 11 -17 4 -21 3 -13 -5z"/>
</g>
</svg>
